<svg width="2642pt" height="788pt" viewBox="0.00 0.00 2642.00 787.97" xmlns="http://www.w3.org/2000/svg" xmlns:xlink="http://www.w3.org/1999/xlink">
<g id="graph0" class="graph" transform="scale(1 1) rotate(0) translate(4 783.97)">
<title>LexicalAnalyzer</title>
<polygon fill="white" stroke="none" points="-4,4 -4,-783.97 2638,-783.97 2638,4 -4,4"/>
<g id="clust1" class="cluster">
<title>cluster_identifier</title>
<polygon fill="lightyellow" stroke="lightyellow" points="8,-14.45 8,-654.47 307,-654.47 307,-14.45 8,-14.45"/>
<text text-anchor="middle" x="157.5" y="-637.87" font-family="Times,serif" font-size="14.00">Identifier/Keyword Recognition</text>
</g>
<g id="clust2" class="cluster">
<title>cluster_integer</title>
<polygon fill="lightcyan" stroke="lightcyan" points="315,-14.97 315,-660.37 539,-660.37 539,-14.97 315,-14.97"/>
<text text-anchor="middle" x="427" y="-643.77" font-family="Times,serif" font-size="14.00">Integer Constant Recognition</text>
</g>
<g id="clust3" class="cluster">
<title>cluster_comments</title>
<polygon fill="lightgray" stroke="lightgray" points="547,-9.31 547,-771.97 1057,-771.97 1057,-9.31 547,-9.31"/>
<text text-anchor="middle" x="802" y="-755.37" font-family="Times,serif" font-size="14.00">Comment Handling</text>
</g>
<g id="clust4" class="cluster">
<title>cluster_operators</title>
<polygon fill="lavender" stroke="lavender" points="1279,-8 1279,-654.79 2372,-654.79 2372,-8 1279,-8"/>
<text text-anchor="middle" x="1825.5" y="-638.19" font-family="Times,serif" font-size="14.00">Operator Recognition</text>
</g>
<g id="clust5" class="cluster">
<title>cluster_legend</title>
<polygon fill="white" stroke="white" points="2446,-260.62 2446,-771.97 2626,-771.97 2626,-260.62 2446,-260.62"/>
<text text-anchor="middle" x="2536" y="-755.37" font-family="Times,serif" font-size="14.00">Legend</text>
</g>
<!-- START -->
<g id="node1" class="node">
<title>START</title>
<polygon fill="lightgreen" stroke="black" points="910,-739.17 851.14,-721.17 910,-703.17 968.86,-721.17 910,-739.17"/>
<polyline fill="none" stroke="black" points="862.62,-724.68 862.62,-717.66"/>
<polyline fill="none" stroke="black" points="898.52,-706.68 921.48,-706.68"/>
<polyline fill="none" stroke="black" points="957.38,-717.66 957.38,-724.68"/>
<polyline fill="none" stroke="black" points="921.48,-735.66 898.52,-735.66"/>
<text text-anchor="middle" x="910" y="-716.97" font-family="Times,serif" font-size="14.00">START</text>
</g>
<!-- START&#45;&gt;START -->
<g id="edge59" class="edge">
<title>START-&gt;START</title>
<path fill="none" stroke="black" d="M944.78,-728.91C966.34,-730.77 986.86,-728.19 986.86,-721.17 986.86,-715.41 973.05,-712.64 956.19,-712.86"/>
<polygon fill="black" stroke="black" points="956.1,-709.36 946.29,-713.36 956.45,-716.35 956.1,-709.36"/>
<text text-anchor="middle" x="1017.96" y="-716.97" font-family="Times,serif" font-size="14.00">whitespace</text>
</g>
<!-- BITWISE_OP_ACCEPT -->
<g id="node8" class="node">
<title>BITWISE_OP_ACCEPT</title>
<ellipse fill="lightcoral" stroke="black" cx="2070" cy="-90.59" rx="67.37" ry="67.37"/>
<ellipse fill="none" stroke="black" cx="2070" cy="-90.59" rx="71.37" ry="71.37"/>
<text text-anchor="middle" x="2070" y="-86.39" font-family="Times,serif" font-size="14.00">BITWISE_OP</text>
</g>
<!-- START&#45;&gt;BITWISE_OP_ACCEPT -->
<g id="edge55" class="edge">
<title>START-&gt;BITWISE_OP_ACCEPT</title>
<path fill="none" stroke="black" d="M965.99,-719.8C1221.63,-717.87 2267.65,-707.1 2318,-660.37 2396.04,-587.94 2430.39,-263.93 2361,-183.17 2309.53,-123.27 2219.28,-102.08 2152.9,-94.82"/>
<polygon fill="black" stroke="black" points="2153.43,-91.36 2143.13,-93.85 2152.74,-98.32 2153.43,-91.36"/>
<text text-anchor="middle" x="2394.93" y="-452.88" font-family="Times,serif" font-size="14.00">^</text>
</g>
<!-- START&#45;&gt;BITWISE_OP_ACCEPT -->
<g id="edge56" class="edge">
<title>START-&gt;BITWISE_OP_ACCEPT</title>
<path fill="none" stroke="black" d="M967.1,-720.13C1189.53,-719.73 1998.31,-716.15 2253,-685.17 2304.04,-678.96 2330.25,-697.33 2366,-660.37 2439.77,-584.09 2463.37,-253.61 2384,-183.17 2319.93,-126.32 2222.33,-104.66 2152.97,-96.47"/>
<polygon fill="black" stroke="black" points="2153.49,-93.01 2143.17,-95.39 2152.72,-99.96 2153.49,-93.01"/>
<text text-anchor="middle" x="2433.88" y="-452.88" font-family="Times,serif" font-size="14.00">~</text>
</g>
<!-- PAREN_ACCEPT -->
<g id="node10" class="node">
<title>PAREN_ACCEPT</title>
<ellipse fill="lightcoral" stroke="black" cx="1112" cy="-565.03" rx="42.7" ry="42.7"/>
<ellipse fill="none" stroke="black" cx="1112" cy="-565.03" rx="46.7" ry="46.7"/>
<text text-anchor="middle" x="1112" y="-560.83" font-family="Times,serif" font-size="14.00">PAREN</text>
</g>
<!-- START&#45;&gt;PAREN_ACCEPT -->
<g id="edge57" class="edge">
<title>START-&gt;PAREN_ACCEPT</title>
<path fill="none" stroke="black" d="M945.11,-713.52C978.29,-705.7 1027.79,-689.86 1061,-660.37 1073.56,-649.22 1083.59,-634.22 1091.33,-619.46"/>
<polygon fill="black" stroke="black" points="1094.37,-621.21 1095.65,-610.69 1088.09,-618.12 1094.37,-621.21"/>
<text text-anchor="middle" x="1057.26" y="-672.57" font-family="Times,serif" font-size="14.00">( )</text>
</g>
<!-- BRACE_ACCEPT -->
<g id="node11" class="node">
<title>BRACE_ACCEPT</title>
<ellipse fill="lightcoral" stroke="black" cx="1224" cy="-565.03" rx="43.23" ry="43.23"/>
<ellipse fill="none" stroke="black" cx="1224" cy="-565.03" rx="47.23" ry="47.23"/>
<text text-anchor="middle" x="1224" y="-560.83" font-family="Times,serif" font-size="14.00">BRACE</text>
</g>
<!-- START&#45;&gt;BRACE_ACCEPT -->
<g id="edge58" class="edge">
<title>START-&gt;BRACE_ACCEPT</title>
<path fill="none" stroke="black" d="M965.93,-719.8C1022.13,-716.76 1108.68,-704.46 1168,-660.37 1182.17,-649.84 1193.42,-634.57 1202.01,-619.37"/>
<polygon fill="black" stroke="black" points="1204.97,-621.25 1206.56,-610.78 1198.79,-617.97 1204.97,-621.25"/>
<text text-anchor="middle" x="1164.82" y="-672.57" font-family="Times,serif" font-size="14.00">{ }</text>
</g>
<!-- ID_START -->
<g id="node12" class="node">
<title>ID_START</title>
<ellipse fill="lightblue" stroke="black" cx="186" cy="-565.03" rx="56.64" ry="56.64"/>
<text text-anchor="middle" x="186" y="-560.83" font-family="Times,serif" font-size="14.00">ID_START</text>
</g>
<!-- START&#45;&gt;ID_START -->
<g id="edge42" class="edge">
<title>START-&gt;ID_START</title>
<path fill="none" stroke="black" d="M857.08,-718.97C729.56,-715.43 408.64,-702.49 311,-660.37 283.79,-648.63 257.1,-629.79 235.41,-612.02"/>
<polygon fill="black" stroke="black" points="237.81,-609.47 227.9,-605.73 233.32,-614.84 237.81,-609.47"/>
<text text-anchor="middle" x="435.21" y="-672.57" font-family="Times,serif" font-size="14.00">[a-zA-Z_]</text>
</g>
<!-- INT_START -->
<g id="node14" class="node">
<title>INT_START</title>
<ellipse fill="lightblue" stroke="black" cx="452" cy="-565.03" rx="62.54" ry="62.54"/>
<text text-anchor="middle" x="452" y="-560.83" font-family="Times,serif" font-size="14.00">INT_START</text>
</g>
<!-- START&#45;&gt;INT_START -->
<g id="edge43" class="edge">
<title>START-&gt;INT_START</title>
<path fill="none" stroke="black" d="M852.4,-720.36C762.05,-719.74 591.97,-714.54 540.01,-685.17 517.78,-672.61 499.56,-651.87 485.57,-631.18"/>
<polygon fill="black" stroke="black" points="488.64,-629.48 480.27,-622.98 482.76,-633.28 488.64,-629.48"/>
<text text-anchor="middle" x="554.01" y="-672.57" font-family="Times,serif" font-size="14.00">[0-9]</text>
</g>
<!-- SLASH -->
<g id="node16" class="node">
<title>SLASH</title>
<ellipse fill="lightblue" stroke="black" cx="910" cy="-565.03" rx="42.67" ry="42.67"/>
<text text-anchor="middle" x="910" y="-569.23" font-family="Times,serif" font-size="14.00">SLASH</text>
<text text-anchor="middle" x="910" y="-552.43" font-family="Times,serif" font-size="14.00">(/)</text>
</g>
<!-- START&#45;&gt;SLASH -->
<g id="edge44" class="edge">
<title>START-&gt;SLASH</title>
<path fill="none" stroke="black" d="M910,-702.79C910,-682.63 910,-648.44 910,-619.29"/>
<polygon fill="black" stroke="black" points="913.5,-619.51 910,-609.51 906.5,-619.51 913.5,-619.51"/>
<text text-anchor="middle" x="911.94" y="-672.57" font-family="Times,serif" font-size="14.00">/</text>
</g>
<!-- PLUS -->
<g id="node20" class="node">
<title>PLUS</title>
<ellipse fill="lightblue" stroke="black" cx="2220" cy="-332.73" rx="35.52" ry="35.52"/>
<text text-anchor="middle" x="2220" y="-336.93" font-family="Times,serif" font-size="14.00">PLUS</text>
<text text-anchor="middle" x="2220" y="-320.13" font-family="Times,serif" font-size="14.00">(+)</text>
</g>
<!-- START&#45;&gt;PLUS -->
<g id="edge45" class="edge">
<title>START-&gt;PLUS</title>
<path fill="none" stroke="black" d="M964.49,-719.37C1195.55,-715.71 2084.61,-699.18 2129,-660.37 2210.45,-589.17 2221.85,-451.87 2221.81,-380.06"/>
<polygon fill="black" stroke="black" points="2225.31,-380.18 2221.72,-370.21 2218.31,-380.24 2225.31,-380.18"/>
<text text-anchor="middle" x="2216.77" y="-560.83" font-family="Times,serif" font-size="14.00">+</text>
</g>
<!-- MINUS -->
<g id="node21" class="node">
<title>MINUS</title>
<ellipse fill="lightblue" stroke="black" cx="2317" cy="-332.73" rx="43.22" ry="43.22"/>
<text text-anchor="middle" x="2317" y="-336.93" font-family="Times,serif" font-size="14.00">MINUS</text>
<text text-anchor="middle" x="2317" y="-320.13" font-family="Times,serif" font-size="14.00">(-)</text>
</g>
<!-- START&#45;&gt;MINUS -->
<g id="edge46" class="edge">
<title>START-&gt;MINUS</title>
<path fill="none" stroke="black" d="M965.06,-719.57C1208.33,-716.66 2176.9,-702.47 2225,-660.37 2303.7,-591.5 2317.49,-461.09 2318.55,-387.6"/>
<polygon fill="black" stroke="black" points="2322.05,-387.85 2318.61,-377.82 2315.05,-387.8 2322.05,-387.85"/>
<text text-anchor="middle" x="2311.56" y="-560.83" font-family="Times,serif" font-size="14.00">-</text>
</g>
<!-- MULT -->
<g id="node22" class="node">
<title>MULT</title>
<ellipse fill="lightblue" stroke="black" cx="1326" cy="-332.73" rx="39.36" ry="39.36"/>
<text text-anchor="middle" x="1326" y="-336.93" font-family="Times,serif" font-size="14.00">MULT</text>
<text text-anchor="middle" x="1326" y="-320.13" font-family="Times,serif" font-size="14.00">(*)</text>
</g>
<!-- START&#45;&gt;MULT -->
<g id="edge47" class="edge">
<title>START-&gt;MULT</title>
<path fill="none" stroke="black" d="M964.64,-719.37C1057.17,-716.77 1238.72,-705.83 1280,-660.37 1349.2,-584.16 1343.9,-453.94 1334.61,-383.12"/>
<polygon fill="black" stroke="black" points="1338.09,-382.78 1333.24,-373.37 1331.16,-383.76 1338.09,-382.78"/>
<text text-anchor="middle" x="1343.07" y="-560.83" font-family="Times,serif" font-size="14.00">*</text>
</g>
<!-- MOD -->
<g id="node23" class="node">
<title>MOD</title>
<ellipse fill="lightblue" stroke="black" cx="1501" cy="-332.73" rx="34.41" ry="34.41"/>
<text text-anchor="middle" x="1501" y="-336.93" font-family="Times,serif" font-size="14.00">MOD</text>
<text text-anchor="middle" x="1501" y="-320.13" font-family="Times,serif" font-size="14.00">(%)</text>
</g>
<!-- START&#45;&gt;MOD -->
<g id="edge48" class="edge">
<title>START-&gt;MOD</title>
<path fill="none" stroke="black" d="M960.27,-718.06C1085.15,-712.32 1401.8,-694.51 1434,-660.37 1453.25,-639.96 1481.77,-463.11 1494.48,-378.49"/>
<polygon fill="black" stroke="black" points="1497.93,-379.09 1495.94,-368.68 1491.01,-378.05 1497.93,-379.09"/>
<text text-anchor="middle" x="1482.86" y="-560.83" font-family="Times,serif" font-size="14.00">%</text>
</g>
<!-- EQUAL -->
<g id="node24" class="node">
<title>EQUAL</title>
<ellipse fill="lightblue" stroke="black" cx="1640" cy="-565.03" rx="44.86" ry="44.86"/>
<text text-anchor="middle" x="1640" y="-569.23" font-family="Times,serif" font-size="14.00">EQUAL</text>
<text text-anchor="middle" x="1640" y="-552.43" font-family="Times,serif" font-size="14.00">(=)</text>
</g>
<!-- START&#45;&gt;EQUAL -->
<g id="edge49" class="edge">
<title>START-&gt;EQUAL</title>
<path fill="none" stroke="black" d="M964.77,-719.44C1107.01,-717.2 1480.61,-709.08 1531,-685.17 1563.85,-669.58 1591.39,-639.21 1610.58,-613.03"/>
<polygon fill="black" stroke="black" points="1613.19,-615.39 1616.13,-605.21 1607.49,-611.34 1613.19,-615.39"/>
<text text-anchor="middle" x="1560.9" y="-672.57" font-family="Times,serif" font-size="14.00">=</text>
</g>
<!-- LESS -->
<g id="node25" class="node">
<title>LESS</title>
<ellipse fill="lightblue" stroke="black" cx="2086" cy="-565.03" rx="34.42" ry="34.42"/>
<text text-anchor="middle" x="2086" y="-569.23" font-family="Times,serif" font-size="14.00">LESS</text>
<text text-anchor="middle" x="2086" y="-552.43" font-family="Times,serif" font-size="14.00">(&lt;)</text>
</g>
<!-- START&#45;&gt;LESS -->
<g id="edge50" class="edge">
<title>START-&gt;LESS</title>
<path fill="none" stroke="black" d="M968.76,-720.69C1113.76,-721.36 1500.1,-719.49 1820,-685.17 1882.83,-678.43 1902.02,-685.5 1960,-660.37 1995.06,-645.17 2029.41,-618.43 2053.37,-597.29"/>
<polygon fill="black" stroke="black" points="2055.49,-600.09 2060.58,-590.8 2050.81,-594.89 2055.49,-600.09"/>
<text text-anchor="middle" x="1941.65" y="-672.57" font-family="Times,serif" font-size="14.00">&lt;</text>
</g>
<!-- GREATER -->
<g id="node26" class="node">
<title>GREATER</title>
<ellipse fill="lightblue" stroke="black" cx="1760" cy="-565.03" rx="56.96" ry="56.96"/>
<text text-anchor="middle" x="1760" y="-569.23" font-family="Times,serif" font-size="14.00">GREATER</text>
<text text-anchor="middle" x="1760" y="-552.43" font-family="Times,serif" font-size="14.00">(&gt;)</text>
</g>
<!-- START&#45;&gt;GREATER -->
<g id="edge51" class="edge">
<title>START-&gt;GREATER</title>
<path fill="none" stroke="black" d="M966.22,-719.88C1080.31,-718.71 1347.03,-712.94 1569,-685.17 1625.2,-678.14 1646.56,-691.32 1694,-660.37 1707.6,-651.5 1719.22,-638.75 1728.74,-625.49"/>
<polygon fill="black" stroke="black" points="1731.43,-627.76 1734.14,-617.52 1725.63,-623.83 1731.43,-627.76"/>
<text text-anchor="middle" x="1684.44" y="-672.57" font-family="Times,serif" font-size="14.00">&gt;</text>
</g>
<!-- EXCLAIM -->
<g id="node27" class="node">
<title>EXCLAIM</title>
<ellipse fill="lightblue" stroke="black" cx="1895" cy="-565.03" rx="56.41" ry="56.41"/>
<text text-anchor="middle" x="1895" y="-569.23" font-family="Times,serif" font-size="14.00">EXCLAIM</text>
<text text-anchor="middle" x="1895" y="-552.43" font-family="Times,serif" font-size="14.00">(!)</text>
</g>
<!-- START&#45;&gt;EXCLAIM -->
<g id="edge52" class="edge">
<title>START-&gt;EXCLAIM</title>
<path fill="none" stroke="black" d="M967.61,-720.31C1097.38,-720.03 1422.3,-716.01 1692,-685.17 1752.17,-678.29 1774.72,-692.6 1826,-660.37 1840.24,-651.42 1852.49,-638.38 1862.55,-624.83"/>
<polygon fill="black" stroke="black" points="1865.4,-626.85 1868.29,-616.66 1859.68,-622.83 1865.4,-626.85"/>
<text text-anchor="middle" x="1813.74" y="-672.57" font-family="Times,serif" font-size="14.00">!</text>
</g>
<!-- AND -->
<g id="node28" class="node">
<title>AND</title>
<ellipse fill="lightblue" stroke="black" cx="1416" cy="-332.73" rx="32.76" ry="32.76"/>
<text text-anchor="middle" x="1416" y="-336.93" font-family="Times,serif" font-size="14.00">AND</text>
<text text-anchor="middle" x="1416" y="-320.13" font-family="Times,serif" font-size="14.00">(&amp;)</text>
</g>
<!-- START&#45;&gt;AND -->
<g id="edge53" class="edge">
<title>START-&gt;AND</title>
<path fill="none" stroke="black" d="M969.95,-721.1C1078.51,-721.38 1301.05,-715.07 1351,-660.37 1423.24,-581.26 1424.96,-445.56 1420.4,-376.62"/>
<polygon fill="black" stroke="black" points="1423.9,-376.57 1419.67,-366.86 1416.92,-377.1 1423.9,-376.57"/>
<text text-anchor="middle" x="1424.15" y="-560.83" font-family="Times,serif" font-size="14.00">&amp;</text>
</g>
<!-- OR -->
<g id="node29" class="node">
<title>OR</title>
<ellipse fill="lightblue" stroke="black" cx="1583" cy="-332.73" rx="29.42" ry="29.42"/>
<text text-anchor="middle" x="1583" y="-336.93" font-family="Times,serif" font-size="14.00">OR</text>
<text text-anchor="middle" x="1583" y="-320.13" font-family="Times,serif" font-size="14.00">(|)</text>
</g>
<!-- START&#45;&gt;OR -->
<g id="edge54" class="edge">
<title>START-&gt;OR</title>
<path fill="none" stroke="black" d="M961.79,-718.51C1097.51,-713.66 1455.61,-697.45 1493,-660.37 1571.76,-582.25 1583.32,-441.96 1583.95,-373.5"/>
<polygon fill="black" stroke="black" points="1587.45,-373.88 1583.96,-363.87 1580.45,-373.87 1587.45,-373.88"/>
<text text-anchor="middle" x="1575.09" y="-560.83" font-family="Times,serif" font-size="14.00">|</text>
</g>
<!-- KEYWORD_ACCEPT -->
<g id="node2" class="node">
<title>KEYWORD_ACCEPT</title>
<ellipse fill="lightcoral" stroke="black" cx="80" cy="-90.59" rx="60.39" ry="60.39"/>
<ellipse fill="none" stroke="black" cx="80" cy="-90.59" rx="64.39" ry="64.39"/>
<text text-anchor="middle" x="80" y="-86.39" font-family="Times,serif" font-size="14.00">KEYWORD</text>
</g>
<!-- IDENTIFIER_ACCEPT -->
<g id="node3" class="node">
<title>IDENTIFIER_ACCEPT</title>
<ellipse fill="lightcoral" stroke="black" cx="231" cy="-90.59" rx="64.14" ry="64.14"/>
<ellipse fill="none" stroke="black" cx="231" cy="-90.59" rx="68.14" ry="68.14"/>
<text text-anchor="middle" x="231" y="-86.39" font-family="Times,serif" font-size="14.00">IDENTIFIER</text>
</g>
<!-- INT_CONST_ACCEPT -->
<g id="node4" class="node">
<title>INT_CONST_ACCEPT</title>
<ellipse fill="lightcoral" stroke="black" cx="404" cy="-90.59" rx="63.61" ry="63.61"/>
<ellipse fill="none" stroke="black" cx="404" cy="-90.59" rx="67.61" ry="67.61"/>
<text text-anchor="middle" x="404" y="-86.39" font-family="Times,serif" font-size="14.00">INT_CONST</text>
</g>
<!-- ARITH_OP_ACCEPT -->
<g id="node5" class="node">
<title>ARITH_OP_ACCEPT</title>
<ellipse fill="lightcoral" stroke="black" cx="1919" cy="-90.59" rx="57.71" ry="57.71"/>
<ellipse fill="none" stroke="black" cx="1919" cy="-90.59" rx="61.71" ry="61.71"/>
<text text-anchor="middle" x="1919" y="-86.39" font-family="Times,serif" font-size="14.00">ARITH_OP</text>
</g>
<!-- REL_OP_ACCEPT -->
<g id="node6" class="node">
<title>REL_OP_ACCEPT</title>
<ellipse fill="lightcoral" stroke="black" cx="1963" cy="-332.73" rx="46.45" ry="46.45"/>
<ellipse fill="none" stroke="black" cx="1963" cy="-332.73" rx="50.45" ry="50.45"/>
<text text-anchor="middle" x="1963" y="-328.53" font-family="Times,serif" font-size="14.00">REL_OP</text>
</g>
<!-- LOGICAL_OP_ACCEPT -->
<g id="node7" class="node">
<title>LOGICAL_OP_ACCEPT</title>
<ellipse fill="lightcoral" stroke="black" cx="1499" cy="-90.59" rx="70.59" ry="70.59"/>
<ellipse fill="none" stroke="black" cx="1499" cy="-90.59" rx="74.59" ry="74.59"/>
<text text-anchor="middle" x="1499" y="-86.39" font-family="Times,serif" font-size="14.00">LOGICAL_OP</text>
</g>
<!-- ASSIGN_OP_ACCEPT -->
<g id="node9" class="node">
<title>ASSIGN_OP_ACCEPT</title>
<ellipse fill="lightcoral" stroke="black" cx="1772" cy="-90.59" rx="63.09" ry="63.09"/>
<ellipse fill="none" stroke="black" cx="1772" cy="-90.59" rx="67.09" ry="67.09"/>
<text text-anchor="middle" x="1772" y="-86.39" font-family="Times,serif" font-size="14.00">ASSIGN_OP</text>
</g>
<!-- ID_CONTINUE -->
<g id="node13" class="node">
<title>ID_CONTINUE</title>
<ellipse fill="lightblue" stroke="black" cx="130" cy="-332.73" rx="75.41" ry="75.41"/>
<text text-anchor="middle" x="130" y="-328.53" font-family="Times,serif" font-size="14.00">ID_CONTINUE</text>
</g>
<!-- ID_START&#45;&gt;ID_CONTINUE -->
<g id="edge1" class="edge">
<title>ID_START-&gt;ID_CONTINUE</title>
<path fill="none" stroke="black" d="M172.8,-509.75C166.12,-482.27 157.86,-448.3 150.38,-417.56"/>
<polygon fill="black" stroke="black" points="153.79,-416.75 148.03,-407.86 146.99,-418.41 153.79,-416.75"/>
<text text-anchor="middle" x="199.05" y="-452.88" font-family="Times,serif" font-size="14.00">[a-zA-Z0-9_]</text>
</g>
<!-- ID_CONTINUE&#45;&gt;KEYWORD_ACCEPT -->
<g id="edge3" class="edge">
<title>ID_CONTINUE-&gt;KEYWORD_ACCEPT</title>
<path fill="none" stroke="black" d="M108.61,-260.02C104.79,-245.77 101.08,-230.86 98.12,-216.77 94.71,-200.53 91.73,-182.97 89.23,-166.29"/>
<polygon fill="black" stroke="black" points="92.7,-165.79 87.8,-156.4 85.77,-166.8 92.7,-165.79"/>
<text text-anchor="middle" x="138.56" y="-204.17" font-family="Times,serif" font-size="14.00">EOF/delimiter</text>
<text text-anchor="middle" x="138.56" y="-187.37" font-family="Times,serif" font-size="14.00">(if keyword)</text>
</g>
<!-- ID_CONTINUE&#45;&gt;IDENTIFIER_ACCEPT -->
<g id="edge4" class="edge">
<title>ID_CONTINUE-&gt;IDENTIFIER_ACCEPT</title>
<path fill="none" stroke="black" d="M159.38,-263.08C165.87,-247.85 172.69,-231.77 179,-216.77 186.11,-199.89 193.7,-181.69 200.82,-164.55"/>
<polygon fill="black" stroke="black" points="204.01,-166.01 204.61,-155.43 197.54,-163.33 204.01,-166.01"/>
<text text-anchor="middle" x="237.81" y="-204.17" font-family="Times,serif" font-size="14.00">EOF/delimiter</text>
<text text-anchor="middle" x="237.81" y="-187.37" font-family="Times,serif" font-size="14.00">(if not keyword)</text>
</g>
<!-- ID_CONTINUE&#45;&gt;ID_CONTINUE -->
<g id="edge2" class="edge">
<title>ID_CONTINUE-&gt;ID_CONTINUE</title>
<path fill="none" stroke="black" d="M202.45,-354.49C214.83,-351.52 223.41,-344.26 223.41,-332.73 223.41,-324.79 219.35,-318.89 212.8,-315"/>
<polygon fill="black" stroke="black" points="214.45,-311.89 203.86,-311.51 211.9,-318.41 214.45,-311.89"/>
<text text-anchor="middle" x="261.11" y="-328.53" font-family="Times,serif" font-size="14.00">[a-zA-Z0-9_]</text>
</g>
<!-- INT_CONTINUE -->
<g id="node15" class="node">
<title>INT_CONTINUE</title>
<ellipse fill="lightblue" stroke="black" cx="404" cy="-332.73" rx="81.3" ry="81.3"/>
<text text-anchor="middle" x="404" y="-328.53" font-family="Times,serif" font-size="14.00">INT_CONTINUE</text>
</g>
<!-- INT_START&#45;&gt;INT_CONTINUE -->
<g id="edge5" class="edge">
<title>INT_START-&gt;INT_CONTINUE</title>
<path fill="none" stroke="black" d="M439.39,-503.52C434.29,-479.04 428.29,-450.27 422.7,-423.44"/>
<polygon fill="black" stroke="black" points="426.19,-423.03 420.72,-413.96 419.34,-424.46 426.19,-423.03"/>
<text text-anchor="middle" x="444.87" y="-452.88" font-family="Times,serif" font-size="14.00">[0-9]</text>
</g>
<!-- INT_CONTINUE&#45;&gt;INT_CONST_ACCEPT -->
<g id="edge7" class="edge">
<title>INT_CONTINUE-&gt;INT_CONST_ACCEPT</title>
<path fill="none" stroke="black" d="M404,-251.09C404,-224.86 404,-195.81 404,-169.76"/>
<polygon fill="black" stroke="black" points="407.5,-169.93 404,-159.93 400.5,-169.93 407.5,-169.93"/>
<text text-anchor="middle" x="444.44" y="-195.77" font-family="Times,serif" font-size="14.00">EOF/delimiter</text>
</g>
<!-- INT_CONTINUE&#45;&gt;INT_CONTINUE -->
<g id="edge6" class="edge">
<title>INT_CONTINUE-&gt;INT_CONTINUE</title>
<path fill="none" stroke="black" d="M482.67,-354.09C494.94,-350.9 503.3,-343.78 503.3,-332.73 503.3,-325.13 499.35,-319.39 492.89,-315.5"/>
<polygon fill="black" stroke="black" points="494.65,-312.44 484.07,-311.93 492.02,-318.93 494.65,-312.44"/>
<text text-anchor="middle" x="517.3" y="-328.53" font-family="Times,serif" font-size="14.00">[0-9]</text>
</g>
<!-- SLASH&#45;&gt;ARITH_OP_ACCEPT -->
<g id="edge60" class="edge">
<title>SLASH-&gt;ARITH_OP_ACCEPT</title>
<path fill="none" stroke="black" d="M943.08,-537.82C974.41,-512.2 1021.89,-471.23 1058,-430.68 1129.01,-350.92 1117.89,-306.37 1197.12,-234.77 1231.58,-203.63 1243.29,-195.75 1288,-183.17 1347.93,-166.31 1791.1,-190.43 1848,-165.17 1857.41,-160.99 1866.21,-154.93 1874.18,-148.05"/>
<polygon fill="black" stroke="black" points="1876.45,-150.72 1881.39,-141.35 1871.68,-145.59 1876.45,-150.72"/>
<text text-anchor="middle" x="1237.56" y="-336.93" font-family="Times,serif" font-size="14.00">EOF/delimiter</text>
<text text-anchor="middle" x="1237.56" y="-320.13" font-family="Times,serif" font-size="14.00">(not / or *)</text>
</g>
<!-- LINE_COMMENT -->
<g id="node17" class="node">
<title>LINE_COMMENT</title>
<ellipse fill="lightblue" stroke="black" cx="662" cy="-332.73" rx="87.21" ry="87.21"/>
<text text-anchor="middle" x="662" y="-328.53" font-family="Times,serif" font-size="14.00">LINE_COMMENT</text>
</g>
<!-- SLASH&#45;&gt;LINE_COMMENT -->
<g id="edge8" class="edge">
<title>SLASH-&gt;LINE_COMMENT</title>
<path fill="none" stroke="black" d="M879.09,-535.33C842.94,-501.76 781.92,-445.09 733.76,-400.37"/>
<polygon fill="black" stroke="black" points="736.36,-398.01 726.65,-393.76 731.6,-403.13 736.36,-398.01"/>
<text text-anchor="middle" x="802.79" y="-452.88" font-family="Times,serif" font-size="14.00">/</text>
</g>
<!-- BLOCK_COMMENT -->
<g id="node18" class="node">
<title>BLOCK_COMMENT</title>
<ellipse fill="lightblue" stroke="black" cx="910" cy="-332.73" rx="97.95" ry="97.95"/>
<text text-anchor="middle" x="910" y="-328.53" font-family="Times,serif" font-size="14.00">BLOCK_COMMENT</text>
</g>
<!-- SLASH&#45;&gt;BLOCK_COMMENT -->
<g id="edge9" class="edge">
<title>SLASH-&gt;BLOCK_COMMENT</title>
<path fill="none" stroke="black" d="M910,-522.06C910,-499.5 910,-470.53 910,-442.12"/>
<polygon fill="black" stroke="black" points="913.5,-442.36 910,-432.36 906.5,-442.36 913.5,-442.36"/>
<text text-anchor="middle" x="913.5" y="-452.88" font-family="Times,serif" font-size="14.00">*</text>
</g>
<!-- LINE_COMMENT&#45;&gt;START -->
<g id="edge11" class="edge">
<title>LINE_COMMENT-&gt;START</title>
<path fill="none" stroke="black" d="M604.03,-398.43C593.34,-413.89 583.75,-431.06 578,-448.68 545.27,-548.95 524.2,-609.81 598,-685.17 615.18,-702.72 762.79,-712.9 848.68,-717.4"/>
<polygon fill="black" stroke="black" points="848.44,-720.89 858.6,-717.9 848.79,-713.9 848.44,-720.89"/>
<text text-anchor="middle" x="580.48" y="-560.83" font-family="Times,serif" font-size="14.00">\n</text>
</g>
<!-- LINE_COMMENT&#45;&gt;LINE_COMMENT -->
<g id="edge10" class="edge">
<title>LINE_COMMENT-&gt;LINE_COMMENT</title>
<path fill="none" stroke="black" d="M747.04,-353.65C759.11,-350.27 767.21,-343.29 767.21,-332.73 767.21,-325.63 763.56,-320.15 757.49,-316.29"/>
<polygon fill="black" stroke="black" points="759,-313.13 748.43,-312.4 756.24,-319.56 759,-313.13"/>
<text text-anchor="middle" x="780.6" y="-328.53" font-family="Times,serif" font-size="14.00">[^\n]</text>
</g>
<!-- BLOCK_COMMENT&#45;&gt;BLOCK_COMMENT -->
<g id="edge12" class="edge">
<title>BLOCK_COMMENT-&gt;BLOCK_COMMENT</title>
<path fill="none" stroke="black" d="M1005.97,-353.03C1018.02,-349.45 1025.95,-342.68 1025.95,-332.73 1025.95,-326.04 1022.37,-320.78 1016.37,-316.97"/>
<polygon fill="black" stroke="black" points="1017.92,-313.83 1007.36,-313.03 1015.11,-320.25 1017.92,-313.83"/>
<text text-anchor="middle" x="1037.4" y="-328.53" font-family="Times,serif" font-size="14.00">[^*]</text>
</g>
<!-- BLOCK_STAR -->
<g id="node19" class="node">
<title>BLOCK_STAR</title>
<ellipse fill="lightblue" stroke="black" cx="880" cy="-90.59" rx="73.28" ry="73.28"/>
<text text-anchor="middle" x="880" y="-86.39" font-family="Times,serif" font-size="14.00">BLOCK_STAR</text>
</g>
<!-- BLOCK_COMMENT&#45;&gt;BLOCK_STAR -->
<g id="edge13" class="edge">
<title>BLOCK_COMMENT-&gt;BLOCK_STAR</title>
<path fill="none" stroke="black" d="M886.19,-237.29C884.95,-230.37 883.86,-223.48 883,-216.77 881.31,-203.55 880.25,-189.47 879.63,-175.72"/>
<polygon fill="black" stroke="black" points="883.13,-175.64 879.26,-165.78 876.13,-175.9 883.13,-175.64"/>
<text text-anchor="middle" x="886.5" y="-195.77" font-family="Times,serif" font-size="14.00">*</text>
</g>
<!-- BLOCK_STAR&#45;&gt;START -->
<g id="edge15" class="edge">
<title>BLOCK_STAR-&gt;START</title>
<path fill="none" stroke="black" d="M807.39,-101.89C732.37,-116.82 618.98,-152.38 566,-234.77 542.45,-271.39 547.63,-391.21 566,-430.68 631.93,-572.32 805.05,-669.44 877.45,-705.07"/>
<polygon fill="black" stroke="black" points="875.48,-708.01 886.01,-709.22 878.54,-701.71 875.48,-708.01"/>
<text text-anchor="middle" x="585.4" y="-452.88" font-family="Times,serif" font-size="14.00">/</text>
</g>
<!-- BLOCK_STAR&#45;&gt;BLOCK_COMMENT -->
<g id="edge14" class="edge">
<title>BLOCK_STAR-&gt;BLOCK_COMMENT</title>
<path fill="none" stroke="black" d="M889,-163.65C891.37,-182.6 893.97,-203.45 896.52,-223.83"/>
<polygon fill="black" stroke="black" points="893.03,-224.1 897.74,-233.59 899.97,-223.23 893.03,-224.1"/>
<text text-anchor="middle" x="904.89" y="-195.77" font-family="Times,serif" font-size="14.00">[^/]</text>
</g>
<!-- PLUS&#45;&gt;ARITH_OP_ACCEPT -->
<g id="edge16" class="edge">
<title>PLUS-&gt;ARITH_OP_ACCEPT</title>
<path fill="none" stroke="black" d="M2226.84,-297.53C2231.46,-263.48 2232.1,-212.21 2202,-183.17 2167.97,-150.34 2032.7,-185.48 1990,-165.17 1980.82,-160.8 1972.19,-154.71 1964.33,-147.87"/>
<polygon fill="black" stroke="black" points="1966.92,-145.5 1957.21,-141.25 1962.15,-150.62 1966.92,-145.5"/>
<text text-anchor="middle" x="2226.2" y="-195.77" font-family="Times,serif" font-size="14.00">+</text>
</g>
<!-- PLUS&#45;&gt;ARITH_OP_ACCEPT -->
<g id="edge17" class="edge">
<title>PLUS-&gt;ARITH_OP_ACCEPT</title>
<path fill="none" stroke="black" d="M2211.83,-297.81C2205.17,-276.94 2193.71,-251.15 2175,-234.77 2154.73,-217.03 2138.11,-233.66 2117.12,-216.77 2103.74,-206 2112.09,-193.01 2098,-183.17 2058.09,-155.33 2033.07,-187.83 1990,-165.17 1981.12,-160.5 1972.69,-154.3 1964.96,-147.48"/>
<polygon fill="black" stroke="black" points="1967.64,-145.2 1957.95,-140.91 1962.85,-150.3 1967.64,-145.2"/>
<text text-anchor="middle" x="2157.56" y="-195.77" font-family="Times,serif" font-size="14.00">EOF/delimiter</text>
</g>
<!-- MINUS&#45;&gt;ARITH_OP_ACCEPT -->
<g id="edge18" class="edge">
<title>MINUS-&gt;ARITH_OP_ACCEPT</title>
<path fill="none" stroke="black" d="M2336.99,-293.94C2351.67,-260.4 2364.68,-212.33 2337,-183.17 2310.42,-155.17 2025.13,-181.18 1990,-165.17 1980.75,-160.96 1972.08,-154.94 1964.2,-148.15"/>
<polygon fill="black" stroke="black" points="1966.79,-145.78 1957.08,-141.54 1962.03,-150.91 1966.79,-145.78"/>
<text text-anchor="middle" x="2354.28" y="-195.77" font-family="Times,serif" font-size="14.00">-</text>
</g>
<!-- MINUS&#45;&gt;ARITH_OP_ACCEPT -->
<g id="edge19" class="edge">
<title>MINUS-&gt;ARITH_OP_ACCEPT</title>
<path fill="none" stroke="black" d="M2298.1,-293.8C2288.68,-275.63 2276.81,-253.75 2265,-234.77 2259.8,-226.42 2257.43,-225.06 2252.12,-216.77 2242.86,-202.3 2247.52,-192.35 2233,-183.17 2187.23,-154.24 2039.02,-188.17 1990,-165.17 1980.79,-160.85 1972.15,-154.78 1964.28,-147.96"/>
<polygon fill="black" stroke="black" points="1966.87,-145.59 1957.17,-141.34 1962.11,-150.72 1966.87,-145.59"/>
<text text-anchor="middle" x="2292.56" y="-195.77" font-family="Times,serif" font-size="14.00">EOF/delimiter</text>
</g>
<!-- MULT&#45;&gt;ARITH_OP_ACCEPT -->
<g id="edge21" class="edge">
<title>MULT-&gt;ARITH_OP_ACCEPT</title>
<path fill="none" stroke="black" d="M1319,-293.58C1315.15,-259.31 1316.13,-210.34 1346.12,-183.17 1387.48,-145.71 1797.04,-187.9 1848,-165.17 1857.29,-161.03 1865.97,-155.06 1873.86,-148.28"/>
<polygon fill="black" stroke="black" points="1876.02,-151.05 1880.99,-141.69 1871.27,-145.91 1876.02,-151.05"/>
<text text-anchor="middle" x="1386.56" y="-195.77" font-family="Times,serif" font-size="14.00">EOF/delimiter</text>
</g>
<!-- MULT&#45;&gt;ASSIGN_OP_ACCEPT -->
<g id="edge20" class="edge">
<title>MULT-&gt;ASSIGN_OP_ACCEPT</title>
<path fill="none" stroke="black" d="M1308.02,-297.53C1293.16,-263.97 1278.66,-213.53 1307.1,-183.17 1328.11,-160.75 1553.01,-171.82 1583,-165.17 1623.34,-156.23 1666.42,-140.02 1701.24,-125.08"/>
<polygon fill="black" stroke="black" points="1702.61,-128.31 1710.38,-121.11 1699.82,-121.89 1702.61,-128.31"/>
<text text-anchor="middle" x="1311.05" y="-195.77" font-family="Times,serif" font-size="14.00">=</text>
</g>
<!-- MOD&#45;&gt;ARITH_OP_ACCEPT -->
<g id="edge23" class="edge">
<title>MOD-&gt;ARITH_OP_ACCEPT</title>
<path fill="none" stroke="black" d="M1509.25,-298.92C1515.91,-278.24 1527.17,-252.23 1545,-234.77 1559.51,-220.56 1571.85,-230.3 1587,-216.77 1599.81,-205.32 1591.6,-192.35 1606.12,-183.17 1651.68,-154.37 1799.21,-188.07 1848,-165.17 1857.21,-160.85 1865.85,-154.78 1873.71,-147.96"/>
<polygon fill="black" stroke="black" points="1875.89,-150.71 1880.83,-141.34 1871.12,-145.59 1875.89,-150.71"/>
<text text-anchor="middle" x="1646.56" y="-195.77" font-family="Times,serif" font-size="14.00">EOF/delimiter</text>
</g>
<!-- MOD&#45;&gt;ASSIGN_OP_ACCEPT -->
<g id="edge22" class="edge">
<title>MOD-&gt;ASSIGN_OP_ACCEPT</title>
<path fill="none" stroke="black" d="M1513.56,-300.49C1521.73,-281.16 1533.05,-256.05 1545,-234.77 1548.4,-228.73 1574.84,-187.69 1580.1,-183.17 1614.41,-153.72 1659.82,-131.49 1697.85,-116.3"/>
<polygon fill="black" stroke="black" points="1698.91,-119.65 1706.96,-112.76 1696.37,-113.13 1698.91,-119.65"/>
<text text-anchor="middle" x="1584.05" y="-195.77" font-family="Times,serif" font-size="14.00">=</text>
</g>
<!-- EQUAL&#45;&gt;REL_OP_ACCEPT -->
<g id="edge24" class="edge">
<title>EQUAL-&gt;REL_OP_ACCEPT</title>
<path fill="none" stroke="black" d="M1656.06,-522.84C1668.41,-497 1688.14,-465.5 1716.1,-448.68 1787.99,-405.44 1832.91,-475.23 1904,-430.68 1919.42,-421.02 1931.39,-405.71 1940.39,-390.09"/>
<polygon fill="black" stroke="black" points="1943.25,-392.17 1944.9,-381.71 1937.08,-388.85 1943.25,-392.17"/>
<text text-anchor="middle" x="1720.05" y="-452.88" font-family="Times,serif" font-size="14.00">=</text>
</g>
<!-- EQUAL&#45;&gt;ASSIGN_OP_ACCEPT -->
<g id="edge25" class="edge">
<title>EQUAL-&gt;ASSIGN_OP_ACCEPT</title>
<path fill="none" stroke="black" d="M1635.6,-520.08C1628.63,-439.96 1619.4,-274.73 1657.12,-234.77 1682.27,-208.13 1796.55,-244.06 1821,-216.77 1830.97,-205.65 1824.63,-197.66 1821,-183.17 1818.9,-174.81 1815.88,-166.37 1812.35,-158.19"/>
<polygon fill="black" stroke="black" points="1815.64,-156.96 1808.27,-149.35 1809.28,-159.9 1815.64,-156.96"/>
<text text-anchor="middle" x="1697.56" y="-328.53" font-family="Times,serif" font-size="14.00">EOF/delimiter</text>
</g>
<!-- LESS&#45;&gt;REL_OP_ACCEPT -->
<g id="edge27" class="edge">
<title>LESS-&gt;REL_OP_ACCEPT</title>
<path fill="none" stroke="black" d="M2104.36,-535.84C2118.37,-510.4 2132.15,-473.31 2112,-448.68 2086.45,-417.44 2056.12,-453.74 2023,-430.68 2008.27,-420.43 1996.45,-405.28 1987.33,-389.99"/>
<polygon fill="black" stroke="black" points="1990.4,-388.31 1982.46,-381.29 1984.29,-391.73 1990.4,-388.31"/>
<text text-anchor="middle" x="2124.19" y="-452.88" font-family="Times,serif" font-size="14.00">=</text>
</g>
<!-- LESS&#45;&gt;REL_OP_ACCEPT -->
<g id="edge28" class="edge">
<title>LESS-&gt;REL_OP_ACCEPT</title>
<path fill="none" stroke="black" d="M2068.08,-535.51C2056.06,-516.03 2040.11,-489.5 2027.12,-465.48 2013.79,-440.82 2000.05,-412.98 1988.73,-389.26"/>
<polygon fill="black" stroke="black" points="1991.97,-387.93 1984.52,-380.4 1985.65,-390.93 1991.97,-387.93"/>
<text text-anchor="middle" x="2067.56" y="-452.88" font-family="Times,serif" font-size="14.00">EOF/delimiter</text>
</g>
<!-- LEFT_SHIFT -->
<g id="node30" class="node">
<title>LEFT_SHIFT</title>
<ellipse fill="lightblue" stroke="black" cx="2099" cy="-332.73" rx="67.41" ry="67.41"/>
<text text-anchor="middle" x="2099" y="-336.93" font-family="Times,serif" font-size="14.00">LEFT_SHIFT</text>
<text text-anchor="middle" x="2099" y="-320.13" font-family="Times,serif" font-size="14.00">(&lt;&lt;)</text>
</g>
<!-- LESS&#45;&gt;LEFT_SHIFT -->
<g id="edge26" class="edge">
<title>LESS-&gt;LEFT_SHIFT</title>
<path fill="none" stroke="black" d="M2106.66,-537.31C2119.92,-518.4 2135.93,-491.82 2143,-465.48 2148.64,-444.46 2144.83,-421.88 2137.54,-401.45"/>
<polygon fill="black" stroke="black" points="2140.9,-400.43 2133.99,-392.4 2134.38,-402.99 2140.9,-400.43"/>
<text text-anchor="middle" x="2149.4" y="-452.88" font-family="Times,serif" font-size="14.00">&lt;</text>
</g>
<!-- GREATER&#45;&gt;REL_OP_ACCEPT -->
<g id="edge32" class="edge">
<title>GREATER-&gt;REL_OP_ACCEPT</title>
<path fill="none" stroke="black" d="M1746.83,-509.39C1745,-488.04 1747.59,-464.85 1762.1,-448.68 1783.33,-425.02 1877.33,-447.97 1904,-430.68 1919.05,-420.92 1930.86,-405.84 1939.83,-390.45"/>
<polygon fill="black" stroke="black" points="1942.9,-392.14 1944.6,-381.68 1936.75,-388.8 1942.9,-392.14"/>
<text text-anchor="middle" x="1766.05" y="-452.88" font-family="Times,serif" font-size="14.00">=</text>
</g>
<!-- GREATER&#45;&gt;REL_OP_ACCEPT -->
<g id="edge33" class="edge">
<title>GREATER-&gt;REL_OP_ACCEPT</title>
<path fill="none" stroke="black" d="M1771.51,-508.92C1778.78,-487.1 1790.47,-463.7 1809.12,-448.68 1842.55,-421.76 1868.72,-455.12 1904,-430.68 1918.68,-420.51 1930.36,-405.39 1939.33,-390.09"/>
<polygon fill="black" stroke="black" points="1942.36,-391.84 1944.1,-381.39 1936.22,-388.48 1942.36,-391.84"/>
<text text-anchor="middle" x="1849.56" y="-452.88" font-family="Times,serif" font-size="14.00">EOF/delimiter</text>
</g>
<!-- RIGHT_SHIFT -->
<g id="node31" class="node">
<title>RIGHT_SHIFT</title>
<ellipse fill="lightblue" stroke="black" cx="1821" cy="-332.73" rx="74.01" ry="74.01"/>
<text text-anchor="middle" x="1821" y="-336.93" font-family="Times,serif" font-size="14.00">RIGHT_SHIFT</text>
<text text-anchor="middle" x="1821" y="-320.13" font-family="Times,serif" font-size="14.00">(&gt;&gt;)</text>
</g>
<!-- GREATER&#45;&gt;RIGHT_SHIFT -->
<g id="edge31" class="edge">
<title>GREATER-&gt;RIGHT_SHIFT</title>
<path fill="none" stroke="black" d="M1734.71,-513.52C1727.78,-493.14 1723.91,-469.57 1731.1,-448.68 1737.76,-429.38 1749.13,-410.84 1761.59,-394.49"/>
<polygon fill="black" stroke="black" points="1764.19,-396.85 1767.66,-386.83 1758.7,-392.5 1764.19,-396.85"/>
<text text-anchor="middle" x="1735.05" y="-452.88" font-family="Times,serif" font-size="14.00">&gt;</text>
</g>
<!-- EXCLAIM&#45;&gt;REL_OP_ACCEPT -->
<g id="edge36" class="edge">
<title>EXCLAIM-&gt;REL_OP_ACCEPT</title>
<path fill="none" stroke="black" d="M1890.45,-508.37C1890.33,-489.16 1891.85,-467.7 1897.1,-448.68 1900.78,-435.38 1915.48,-409.3 1930.07,-385.34"/>
<polygon fill="black" stroke="black" points="1933.01,-387.23 1935.27,-376.88 1927.05,-383.57 1933.01,-387.23"/>
<text text-anchor="middle" x="1901.05" y="-452.88" font-family="Times,serif" font-size="14.00">=</text>
</g>
<!-- EXCLAIM&#45;&gt;REL_OP_ACCEPT -->
<g id="edge37" class="edge">
<title>EXCLAIM-&gt;REL_OP_ACCEPT</title>
<path fill="none" stroke="black" d="M1909.61,-510.23C1914.99,-490.8 1921.21,-468.72 1927.12,-448.68 1932.57,-430.25 1938.72,-410.23 1944.38,-392.15"/>
<polygon fill="black" stroke="black" points="1947.72,-393.2 1947.38,-382.61 1941.04,-391.1 1947.72,-393.2"/>
<text text-anchor="middle" x="1967.56" y="-452.88" font-family="Times,serif" font-size="14.00">EOF/delimiter</text>
</g>
<!-- AND&#45;&gt;LOGICAL_OP_ACCEPT -->
<g id="edge38" class="edge">
<title>AND-&gt;LOGICAL_OP_ACCEPT</title>
<path fill="none" stroke="black" d="M1417.75,-299.76C1420.27,-269.01 1426.38,-221.65 1441.11,-183.17 1443.8,-176.15 1447.06,-169.09 1450.65,-162.17"/>
<polygon fill="black" stroke="black" points="1453.67,-163.94 1455.39,-153.48 1447.52,-160.58 1453.67,-163.94"/>
<text text-anchor="middle" x="1446.56" y="-195.77" font-family="Times,serif" font-size="14.00">&amp;</text>
</g>
<!-- AND&#45;&gt;BITWISE_OP_ACCEPT -->
<g id="edge39" class="edge">
<title>AND-&gt;BITWISE_OP_ACCEPT</title>
<path fill="none" stroke="black" d="M1425.36,-301.1C1438.3,-259.75 1461.17,-190.36 1471.12,-183.17 1517.9,-149.42 1936.63,-187.06 1990,-165.17 1998.44,-161.71 2006.55,-156.93 2014.14,-151.46"/>
<polygon fill="black" stroke="black" points="2016.19,-154.3 2021.95,-145.4 2011.9,-148.77 2016.19,-154.3"/>
<text text-anchor="middle" x="1511.56" y="-195.77" font-family="Times,serif" font-size="14.00">EOF/delimiter</text>
</g>
<!-- OR&#45;&gt;LOGICAL_OP_ACCEPT -->
<g id="edge40" class="edge">
<title>OR-&gt;LOGICAL_OP_ACCEPT</title>
<path fill="none" stroke="black" d="M1588.6,-303.58C1594.37,-281.8 1605.5,-252.45 1626,-234.77 1648.7,-215.19 1672.85,-240.63 1691,-216.77 1700.04,-204.89 1698.97,-195.8 1691,-183.17 1667.17,-145.41 1623.02,-122.88 1583.06,-109.63"/>
<polygon fill="black" stroke="black" points="1584.23,-106.33 1573.64,-106.67 1582.13,-113.01 1584.23,-106.33"/>
<text text-anchor="middle" x="1698.79" y="-195.77" font-family="Times,serif" font-size="14.00">|</text>
</g>
<!-- OR&#45;&gt;BITWISE_OP_ACCEPT -->
<g id="edge41" class="edge">
<title>OR-&gt;BITWISE_OP_ACCEPT</title>
<path fill="none" stroke="black" d="M1588.4,-303.33C1594.05,-281.41 1605.13,-252 1626,-234.77 1653.44,-212.12 1672.25,-232.83 1704,-216.77 1724.45,-206.43 1721.93,-191.91 1743.12,-183.17 1844.83,-141.23 1889.03,-208.85 1990,-165.17 1998.34,-161.56 2006.37,-156.71 2013.92,-151.21"/>
<polygon fill="black" stroke="black" points="2015.62,-154.32 2021.35,-145.41 2011.31,-148.8 2015.62,-154.32"/>
<text text-anchor="middle" x="1783.56" y="-195.77" font-family="Times,serif" font-size="14.00">EOF/delimiter</text>
</g>
<!-- LEFT_SHIFT&#45;&gt;BITWISE_OP_ACCEPT -->
<g id="edge30" class="edge">
<title>LEFT_SHIFT-&gt;BITWISE_OP_ACCEPT</title>
<path fill="none" stroke="black" d="M2053.59,-282.26C2038.99,-263.21 2024.66,-240.34 2017.12,-216.77 2011,-197.62 2014.82,-177.34 2022.63,-158.81"/>
<polygon fill="black" stroke="black" points="2025.79,-160.33 2026.86,-149.79 2019.45,-157.36 2025.79,-160.33"/>
<text text-anchor="middle" x="2057.56" y="-195.77" font-family="Times,serif" font-size="14.00">EOF/delimiter</text>
</g>
<!-- LEFT_SHIFT&#45;&gt;ASSIGN_OP_ACCEPT -->
<g id="edge29" class="edge">
<title>LEFT_SHIFT-&gt;ASSIGN_OP_ACCEPT</title>
<path fill="none" stroke="black" d="M2059.11,-277.94C2047.63,-263.48 2034.76,-248.15 2022,-234.77 2020.5,-233.2 1964.97,-184.09 1963,-183.17 1916.13,-161.28 1894.3,-188.24 1848,-165.17 1839.61,-160.99 1831.55,-155.55 1824.01,-149.53"/>
<polygon fill="black" stroke="black" points="1826.46,-147.01 1816.57,-143.2 1821.92,-152.35 1826.46,-147.01"/>
<text text-anchor="middle" x="2005.1" y="-195.77" font-family="Times,serif" font-size="14.00">=</text>
</g>
<!-- RIGHT_SHIFT&#45;&gt;BITWISE_OP_ACCEPT -->
<g id="edge35" class="edge">
<title>RIGHT_SHIFT-&gt;BITWISE_OP_ACCEPT</title>
<path fill="none" stroke="black" d="M1834.8,-259.77C1843.74,-231.86 1858.35,-202.12 1882.12,-183.17 1920.14,-152.88 1946.33,-186.51 1990,-165.17 1998.16,-161.18 2006.09,-156.09 2013.57,-150.45"/>
<polygon fill="black" stroke="black" points="2015.33,-153.53 2020.96,-144.56 2010.96,-148.06 2015.33,-153.53"/>
<text text-anchor="middle" x="1922.56" y="-195.77" font-family="Times,serif" font-size="14.00">EOF/delimiter</text>
</g>
<!-- RIGHT_SHIFT&#45;&gt;ASSIGN_OP_ACCEPT -->
<g id="edge34" class="edge">
<title>RIGHT_SHIFT-&gt;ASSIGN_OP_ACCEPT</title>
<path fill="none" stroke="black" d="M1833.54,-259.65C1835.44,-235.01 1834.86,-207.53 1828,-183.17 1825.32,-173.66 1821.35,-164.15 1816.73,-155.06"/>
<polygon fill="black" stroke="black" points="1819.84,-153.46 1812.01,-146.33 1813.69,-156.79 1819.84,-153.46"/>
<text text-anchor="middle" x="1837.53" y="-195.77" font-family="Times,serif" font-size="14.00">=</text>
</g>
<!-- LEGEND_START -->
<g id="node32" class="node">
<title>LEGEND_START</title>
<polygon fill="lightgreen" stroke="black" points="2536,-739.17 2463.88,-721.17 2536,-703.17 2608.12,-721.17 2536,-739.17"/>
<polyline fill="none" stroke="black" points="2475.52,-724.08 2475.52,-718.26"/>
<polyline fill="none" stroke="black" points="2524.36,-706.08 2547.64,-706.08"/>
<polyline fill="none" stroke="black" points="2596.48,-718.26 2596.48,-724.08"/>
<polyline fill="none" stroke="black" points="2547.64,-736.26 2524.36,-736.26"/>
<text text-anchor="middle" x="2536" y="-716.97" font-family="Times,serif" font-size="14.00">Start State</text>
</g>
<!-- LEGEND_INTERMEDIATE -->
<g id="node34" class="node">
<title>LEGEND_INTERMEDIATE</title>
<ellipse fill="lightblue" stroke="black" cx="2536" cy="-565.03" rx="81.55" ry="81.55"/>
<text text-anchor="middle" x="2536" y="-560.83" font-family="Times,serif" font-size="14.00">Intermediate State</text>
</g>
<!-- LEGEND_START&#45;&gt;LEGEND_INTERMEDIATE -->
<!-- LEGEND_ACCEPT -->
<g id="node33" class="node">
<title>LEGEND_ACCEPT</title>
<ellipse fill="lightcoral" stroke="black" cx="2536" cy="-332.73" rx="60.1" ry="60.1"/>
<ellipse fill="none" stroke="black" cx="2536" cy="-332.73" rx="64.1" ry="64.1"/>
<text text-anchor="middle" x="2536" y="-328.53" font-family="Times,serif" font-size="14.00">Accept State</text>
</g>
<!-- LEGEND_INTERMEDIATE&#45;&gt;LEGEND_ACCEPT -->
</g>
</svg>